<svg xmlns="http://www.w3.org/2000/svg" width="1040" height="560" viewBox="0 0 1040 560">
<rect width="100%" height="100%" fill="#ffffff"/>
<text x="520.0" y="28.0" font-size="18" font-family="Arial, sans-serif" font-weight="700" fill="#111827" text-anchor="middle">Strict success rate timeline</text>
<rect x="70" y="54" width="710" height="422" fill="#f9fafb" stroke="#d1d5db"/>
<line x1="70" y1="476.0" x2="780" y2="476.0" stroke="#e5e7eb"/>
<text x="60.0" y="480.0" font-size="11" font-family="Arial, sans-serif" font-weight="400" fill="#111827" text-anchor="end">0.00</text>
<line x1="70" y1="391.6" x2="780" y2="391.6" stroke="#e5e7eb"/>
<text x="60.0" y="395.6" font-size="11" font-family="Arial, sans-serif" font-weight="400" fill="#111827" text-anchor="end">0.20</text>
<line x1="70" y1="307.2" x2="780" y2="307.2" stroke="#e5e7eb"/>
<text x="60.0" y="311.2" font-size="11" font-family="Arial, sans-serif" font-weight="400" fill="#111827" text-anchor="end">0.40</text>
<line x1="70" y1="222.8" x2="780" y2="222.8" stroke="#e5e7eb"/>
<text x="60.0" y="226.8" font-size="11" font-family="Arial, sans-serif" font-weight="400" fill="#111827" text-anchor="end">0.60</text>
<line x1="70" y1="138.4" x2="780" y2="138.4" stroke="#e5e7eb"/>
<text x="60.0" y="142.4" font-size="11" font-family="Arial, sans-serif" font-weight="400" fill="#111827" text-anchor="end">0.80</text>
<line x1="70" y1="54.0" x2="780" y2="54.0" stroke="#e5e7eb"/>
<text x="60.0" y="58.0" font-size="11" font-family="Arial, sans-serif" font-weight="400" fill="#111827" text-anchor="end">1.00</text>
<text x="425.0" y="536.0" font-size="12" font-family="Arial, sans-serif" font-weight="400" fill="#111827" text-anchor="middle">Comparable run index</text>
<text x="20" y="265.0" font-size="12" fill="#374151" text-anchor="middle" transform="rotate(-90 20,265.0)">Strict success rate</text>
<polyline points="70.0,476.0 75.0,476.0 79.9,476.0 84.9,476.0 89.9,476.0 94.8,476.0 99.8,476.0 104.8,476.0 109.7,476.0 114.7,476.0 119.7,476.0 124.6,476.0 129.6,476.0 134.5,370.5 139.5,476.0 144.5,476.0 149.4,476.0 154.4,476.0 159.4,476.0 164.3,476.0 169.3,476.0 174.3,476.0 179.2,476.0 184.2,476.0 189.2,476.0 194.1,476.0 199.1,476.0 204.1,476.0 209.0,476.0 214.0,476.0 219.0,476.0 223.9,476.0 228.9,476.0 233.8,476.0 238.8,476.0 243.8,476.0 248.7,476.0 253.7,476.0 258.7,476.0 263.6,476.0 268.6,476.0 273.6,476.0 278.5,476.0 283.5,476.0 288.5,476.0 293.4,476.0 298.4,476.0 303.4,476.0 308.3,476.0 313.3,476.0 318.3,476.0 323.2,476.0 328.2,476.0 333.1,476.0 338.1,476.0 343.1,476.0 348.0,476.0 353.0,476.0 358.0,476.0 362.9,476.0 367.9,476.0 372.9,476.0 377.8,476.0 382.8,476.0 387.8,476.0 392.7,476.0 397.7,476.0 402.7,476.0 407.6,476.0 412.6,476.0 417.6,476.0 422.5,476.0 427.5,476.0 432.4,476.0 437.4,476.0 442.4,476.0 447.3,476.0 452.3,265.0 457.3,476.0 462.2,476.0 467.2,476.0 472.2,476.0 477.1,476.0 482.1,476.0 487.1,476.0 492.0,476.0 497.0,265.0 502.0,476.0 506.9,476.0 511.9,476.0 516.9,476.0 521.8,476.0 526.8,476.0 531.7,476.0 536.7,476.0 541.7,476.0 546.6,476.0 551.6,476.0 556.6,476.0 561.5,476.0 566.5,476.0 571.5,476.0 576.4,476.0 581.4,476.0 586.4,476.0 591.3,476.0 596.3,476.0 601.3,476.0 606.2,476.0 611.2,476.0 616.2,476.0 621.1,476.0 626.1,476.0 631.0,476.0 636.0,476.0 641.0,476.0 645.9,476.0 650.9,476.0 655.9,476.0 660.8,476.0 665.8,476.0 670.8,476.0 675.7,476.0 680.7,476.0 685.7,476.0 690.6,476.0 695.6,476.0 700.6,476.0 705.5,476.0 710.5,476.0 715.5,476.0 720.4,476.0 725.4,476.0 730.3,476.0 735.3,476.0 740.3,476.0 745.2,476.0 750.2,476.0 755.2,476.0 760.1,476.0 765.1,476.0 770.1,476.0 775.0,476.0 780.0,476.0" fill="none" stroke="#2563eb" stroke-width="2.4" stroke-linejoin="round"/>
<circle cx="70.0" cy="476.0" r="3.2" fill="#2563eb"/>
<circle cx="75.0" cy="476.0" r="3.2" fill="#2563eb"/>
<circle cx="79.9" cy="476.0" r="3.2" fill="#2563eb"/>
<circle cx="84.9" cy="476.0" r="3.2" fill="#2563eb"/>
<circle cx="89.9" cy="476.0" r="3.2" fill="#2563eb"/>
<circle cx="94.8" cy="476.0" r="3.2" fill="#2563eb"/>
<circle cx="99.8" cy="476.0" r="3.2" fill="#2563eb"/>
<circle cx="104.8" cy="476.0" r="3.2" fill="#2563eb"/>
<circle cx="109.7" cy="476.0" r="3.2" fill="#2563eb"/>
<circle cx="114.7" cy="476.0" r="3.2" fill="#2563eb"/>
<circle cx="119.7" cy="476.0" r="3.2" fill="#2563eb"/>
<circle cx="124.6" cy="476.0" r="3.2" fill="#2563eb"/>
<circle cx="129.6" cy="476.0" r="3.2" fill="#2563eb"/>
<circle cx="134.5" cy="370.5" r="3.2" fill="#2563eb"/>
<circle cx="139.5" cy="476.0" r="3.2" fill="#2563eb"/>
<circle cx="144.5" cy="476.0" r="3.2" fill="#2563eb"/>
<circle cx="149.4" cy="476.0" r="3.2" fill="#2563eb"/>
<circle cx="154.4" cy="476.0" r="3.2" fill="#2563eb"/>
<circle cx="159.4" cy="476.0" r="3.2" fill="#2563eb"/>
<circle cx="164.3" cy="476.0" r="3.2" fill="#2563eb"/>
<circle cx="169.3" cy="476.0" r="3.2" fill="#2563eb"/>
<circle cx="174.3" cy="476.0" r="3.2" fill="#2563eb"/>
<circle cx="179.2" cy="476.0" r="3.2" fill="#2563eb"/>
<circle cx="184.2" cy="476.0" r="3.2" fill="#2563eb"/>
<circle cx="189.2" cy="476.0" r="3.2" fill="#2563eb"/>
<circle cx="194.1" cy="476.0" r="3.2" fill="#2563eb"/>
<circle cx="199.1" cy="476.0" r="3.2" fill="#2563eb"/>
<circle cx="204.1" cy="476.0" r="3.2" fill="#2563eb"/>
<circle cx="209.0" cy="476.0" r="3.2" fill="#2563eb"/>
<circle cx="214.0" cy="476.0" r="3.2" fill="#2563eb"/>
<circle cx="219.0" cy="476.0" r="3.2" fill="#2563eb"/>
<circle cx="223.9" cy="476.0" r="3.2" fill="#2563eb"/>
<circle cx="228.9" cy="476.0" r="3.2" fill="#2563eb"/>
<circle cx="233.8" cy="476.0" r="3.2" fill="#2563eb"/>
<circle cx="238.8" cy="476.0" r="3.2" fill="#2563eb"/>
<circle cx="243.8" cy="476.0" r="3.2" fill="#2563eb"/>
<circle cx="248.7" cy="476.0" r="3.2" fill="#2563eb"/>
<circle cx="253.7" cy="476.0" r="3.2" fill="#2563eb"/>
<circle cx="258.7" cy="476.0" r="3.2" fill="#2563eb"/>
<circle cx="263.6" cy="476.0" r="3.2" fill="#2563eb"/>
<circle cx="268.6" cy="476.0" r="3.2" fill="#2563eb"/>
<circle cx="273.6" cy="476.0" r="3.2" fill="#2563eb"/>
<circle cx="278.5" cy="476.0" r="3.2" fill="#2563eb"/>
<circle cx="283.5" cy="476.0" r="3.2" fill="#2563eb"/>
<circle cx="288.5" cy="476.0" r="3.2" fill="#2563eb"/>
<circle cx="293.4" cy="476.0" r="3.2" fill="#2563eb"/>
<circle cx="298.4" cy="476.0" r="3.2" fill="#2563eb"/>
<circle cx="303.4" cy="476.0" r="3.2" fill="#2563eb"/>
<circle cx="308.3" cy="476.0" r="3.2" fill="#2563eb"/>
<circle cx="313.3" cy="476.0" r="3.2" fill="#2563eb"/>
<circle cx="318.3" cy="476.0" r="3.2" fill="#2563eb"/>
<circle cx="323.2" cy="476.0" r="3.2" fill="#2563eb"/>
<circle cx="328.2" cy="476.0" r="3.2" fill="#2563eb"/>
<circle cx="333.1" cy="476.0" r="3.2" fill="#2563eb"/>
<circle cx="338.1" cy="476.0" r="3.2" fill="#2563eb"/>
<circle cx="343.1" cy="476.0" r="3.2" fill="#2563eb"/>
<circle cx="348.0" cy="476.0" r="3.2" fill="#2563eb"/>
<circle cx="353.0" cy="476.0" r="3.2" fill="#2563eb"/>
<circle cx="358.0" cy="476.0" r="3.2" fill="#2563eb"/>
<circle cx="362.9" cy="476.0" r="3.2" fill="#2563eb"/>
<circle cx="367.9" cy="476.0" r="3.2" fill="#2563eb"/>
<circle cx="372.9" cy="476.0" r="3.2" fill="#2563eb"/>
<circle cx="377.8" cy="476.0" r="3.2" fill="#2563eb"/>
<circle cx="382.8" cy="476.0" r="3.2" fill="#2563eb"/>
<circle cx="387.8" cy="476.0" r="3.2" fill="#2563eb"/>
<circle cx="392.7" cy="476.0" r="3.2" fill="#2563eb"/>
<circle cx="397.7" cy="476.0" r="3.2" fill="#2563eb"/>
<circle cx="402.7" cy="476.0" r="3.2" fill="#2563eb"/>
<circle cx="407.6" cy="476.0" r="3.2" fill="#2563eb"/>
<circle cx="412.6" cy="476.0" r="3.2" fill="#2563eb"/>
<circle cx="417.6" cy="476.0" r="3.2" fill="#2563eb"/>
<circle cx="422.5" cy="476.0" r="3.2" fill="#2563eb"/>
<circle cx="427.5" cy="476.0" r="3.2" fill="#2563eb"/>
<circle cx="432.4" cy="476.0" r="3.2" fill="#2563eb"/>
<circle cx="437.4" cy="476.0" r="3.2" fill="#2563eb"/>
<circle cx="442.4" cy="476.0" r="3.2" fill="#2563eb"/>
<circle cx="447.3" cy="476.0" r="3.2" fill="#2563eb"/>
<circle cx="452.3" cy="265.0" r="3.2" fill="#2563eb"/>
<circle cx="457.3" cy="476.0" r="3.2" fill="#2563eb"/>
<circle cx="462.2" cy="476.0" r="3.2" fill="#2563eb"/>
<circle cx="467.2" cy="476.0" r="3.2" fill="#2563eb"/>
<circle cx="472.2" cy="476.0" r="3.2" fill="#2563eb"/>
<circle cx="477.1" cy="476.0" r="3.2" fill="#2563eb"/>
<circle cx="482.1" cy="476.0" r="3.2" fill="#2563eb"/>
<circle cx="487.1" cy="476.0" r="3.2" fill="#2563eb"/>
<circle cx="492.0" cy="476.0" r="3.2" fill="#2563eb"/>
<circle cx="497.0" cy="265.0" r="3.2" fill="#2563eb"/>
<circle cx="502.0" cy="476.0" r="3.2" fill="#2563eb"/>
<circle cx="506.9" cy="476.0" r="3.2" fill="#2563eb"/>
<circle cx="511.9" cy="476.0" r="3.2" fill="#2563eb"/>
<circle cx="516.9" cy="476.0" r="3.2" fill="#2563eb"/>
<circle cx="521.8" cy="476.0" r="3.2" fill="#2563eb"/>
<circle cx="526.8" cy="476.0" r="3.2" fill="#2563eb"/>
<circle cx="531.7" cy="476.0" r="3.2" fill="#2563eb"/>
<circle cx="536.7" cy="476.0" r="3.2" fill="#2563eb"/>
<circle cx="541.7" cy="476.0" r="3.2" fill="#2563eb"/>
<circle cx="546.6" cy="476.0" r="3.2" fill="#2563eb"/>
<circle cx="551.6" cy="476.0" r="3.2" fill="#2563eb"/>
<circle cx="556.6" cy="476.0" r="3.2" fill="#2563eb"/>
<circle cx="561.5" cy="476.0" r="3.2" fill="#2563eb"/>
<circle cx="566.5" cy="476.0" r="3.2" fill="#2563eb"/>
<circle cx="571.5" cy="476.0" r="3.2" fill="#2563eb"/>
<circle cx="576.4" cy="476.0" r="3.2" fill="#2563eb"/>
<circle cx="581.4" cy="476.0" r="3.2" fill="#2563eb"/>
<circle cx="586.4" cy="476.0" r="3.2" fill="#2563eb"/>
<circle cx="591.3" cy="476.0" r="3.2" fill="#2563eb"/>
<circle cx="596.3" cy="476.0" r="3.2" fill="#2563eb"/>
<circle cx="601.3" cy="476.0" r="3.2" fill="#2563eb"/>
<circle cx="606.2" cy="476.0" r="3.2" fill="#2563eb"/>
<circle cx="611.2" cy="476.0" r="3.2" fill="#2563eb"/>
<circle cx="616.2" cy="476.0" r="3.2" fill="#2563eb"/>
<circle cx="621.1" cy="476.0" r="3.2" fill="#2563eb"/>
<circle cx="626.1" cy="476.0" r="3.2" fill="#2563eb"/>
<circle cx="631.0" cy="476.0" r="3.2" fill="#2563eb"/>
<circle cx="636.0" cy="476.0" r="3.2" fill="#2563eb"/>
<circle cx="641.0" cy="476.0" r="3.2" fill="#2563eb"/>
<circle cx="645.9" cy="476.0" r="3.2" fill="#2563eb"/>
<circle cx="650.9" cy="476.0" r="3.2" fill="#2563eb"/>
<circle cx="655.9" cy="476.0" r="3.2" fill="#2563eb"/>
<circle cx="660.8" cy="476.0" r="3.2" fill="#2563eb"/>
<circle cx="665.8" cy="476.0" r="3.2" fill="#2563eb"/>
<circle cx="670.8" cy="476.0" r="3.2" fill="#2563eb"/>
<circle cx="675.7" cy="476.0" r="3.2" fill="#2563eb"/>
<circle cx="680.7" cy="476.0" r="3.2" fill="#2563eb"/>
<circle cx="685.7" cy="476.0" r="3.2" fill="#2563eb"/>
<circle cx="690.6" cy="476.0" r="3.2" fill="#2563eb"/>
<circle cx="695.6" cy="476.0" r="3.2" fill="#2563eb"/>
<circle cx="700.6" cy="476.0" r="3.2" fill="#2563eb"/>
<circle cx="705.5" cy="476.0" r="3.2" fill="#2563eb"/>
<circle cx="710.5" cy="476.0" r="3.2" fill="#2563eb"/>
<circle cx="715.5" cy="476.0" r="3.2" fill="#2563eb"/>
<circle cx="720.4" cy="476.0" r="3.2" fill="#2563eb"/>
<circle cx="725.4" cy="476.0" r="3.2" fill="#2563eb"/>
<circle cx="730.3" cy="476.0" r="3.2" fill="#2563eb"/>
<circle cx="735.3" cy="476.0" r="3.2" fill="#2563eb"/>
<circle cx="740.3" cy="476.0" r="3.2" fill="#2563eb"/>
<circle cx="745.2" cy="476.0" r="3.2" fill="#2563eb"/>
<circle cx="750.2" cy="476.0" r="3.2" fill="#2563eb"/>
<circle cx="755.2" cy="476.0" r="3.2" fill="#2563eb"/>
<circle cx="760.1" cy="476.0" r="3.2" fill="#2563eb"/>
<circle cx="765.1" cy="476.0" r="3.2" fill="#2563eb"/>
<circle cx="770.1" cy="476.0" r="3.2" fill="#2563eb"/>
<circle cx="775.0" cy="476.0" r="3.2" fill="#2563eb"/>
<circle cx="780.0" cy="476.0" r="3.2" fill="#2563eb"/>
<rect x="808" y="66" width="14" height="14" fill="#2563eb"/>
<text x="830.0" y="77.0" font-size="12" font-family="Arial, sans-serif" font-weight="400" fill="#111827" text-anchor="start">wall_4course|moon</text>
<polyline points="70.0,476.0 75.0,476.0 79.9,54.0 84.9,476.0 89.9,476.0 94.8,476.0 99.8,476.0 104.8,335.3 109.7,54.0 114.7,476.0 119.7,54.0 124.6,54.0 129.6,476.0 134.5,476.0 139.5,476.0 144.5,476.0 149.4,54.0 154.4,476.0 159.4,476.0 164.3,476.0 169.3,476.0 174.3,54.0 179.2,476.0 184.2,54.0 189.2,370.5 194.1,265.0 199.1,476.0 204.1,476.0 209.0,265.0 214.0,265.0 219.0,476.0 223.9,54.0 228.9,265.0 233.8,476.0 238.8,476.0 243.8,54.0 248.7,54.0 253.7,476.0 258.7,265.0 263.6,476.0 268.6,54.0 273.6,476.0 278.5,476.0 283.5,476.0 288.5,265.0 293.4,476.0 298.4,265.0 303.4,476.0 308.3,54.0 313.3,476.0 318.3,265.0 323.2,476.0 328.2,265.0 333.1,476.0 338.1,476.0 343.1,54.0 348.0,265.0 353.0,476.0 358.0,265.0 362.9,476.0 367.9,54.0 372.9,476.0 377.8,265.0 382.8,476.0 387.8,476.0" fill="none" stroke="#16a34a" stroke-width="2.4" stroke-linejoin="round"/>
<circle cx="70.0" cy="476.0" r="3.2" fill="#16a34a"/>
<circle cx="75.0" cy="476.0" r="3.2" fill="#16a34a"/>
<circle cx="79.9" cy="54.0" r="3.2" fill="#16a34a"/>
<circle cx="84.9" cy="476.0" r="3.2" fill="#16a34a"/>
<circle cx="89.9" cy="476.0" r="3.2" fill="#16a34a"/>
<circle cx="94.8" cy="476.0" r="3.2" fill="#16a34a"/>
<circle cx="99.8" cy="476.0" r="3.2" fill="#16a34a"/>
<circle cx="104.8" cy="335.3" r="3.2" fill="#16a34a"/>
<circle cx="109.7" cy="54.0" r="3.2" fill="#16a34a"/>
<circle cx="114.7" cy="476.0" r="3.2" fill="#16a34a"/>
<circle cx="119.7" cy="54.0" r="3.2" fill="#16a34a"/>
<circle cx="124.6" cy="54.0" r="3.2" fill="#16a34a"/>
<circle cx="129.6" cy="476.0" r="3.2" fill="#16a34a"/>
<circle cx="134.5" cy="476.0" r="3.2" fill="#16a34a"/>
<circle cx="139.5" cy="476.0" r="3.2" fill="#16a34a"/>
<circle cx="144.5" cy="476.0" r="3.2" fill="#16a34a"/>
<circle cx="149.4" cy="54.0" r="3.2" fill="#16a34a"/>
<circle cx="154.4" cy="476.0" r="3.2" fill="#16a34a"/>
<circle cx="159.4" cy="476.0" r="3.2" fill="#16a34a"/>
<circle cx="164.3" cy="476.0" r="3.2" fill="#16a34a"/>
<circle cx="169.3" cy="476.0" r="3.2" fill="#16a34a"/>
<circle cx="174.3" cy="54.0" r="3.2" fill="#16a34a"/>
<circle cx="179.2" cy="476.0" r="3.2" fill="#16a34a"/>
<circle cx="184.2" cy="54.0" r="3.2" fill="#16a34a"/>
<circle cx="189.2" cy="370.5" r="3.2" fill="#16a34a"/>
<circle cx="194.1" cy="265.0" r="3.2" fill="#16a34a"/>
<circle cx="199.1" cy="476.0" r="3.2" fill="#16a34a"/>
<circle cx="204.1" cy="476.0" r="3.2" fill="#16a34a"/>
<circle cx="209.0" cy="265.0" r="3.2" fill="#16a34a"/>
<circle cx="214.0" cy="265.0" r="3.2" fill="#16a34a"/>
<circle cx="219.0" cy="476.0" r="3.2" fill="#16a34a"/>
<circle cx="223.9" cy="54.0" r="3.2" fill="#16a34a"/>
<circle cx="228.9" cy="265.0" r="3.2" fill="#16a34a"/>
<circle cx="233.8" cy="476.0" r="3.2" fill="#16a34a"/>
<circle cx="238.8" cy="476.0" r="3.2" fill="#16a34a"/>
<circle cx="243.8" cy="54.0" r="3.2" fill="#16a34a"/>
<circle cx="248.7" cy="54.0" r="3.2" fill="#16a34a"/>
<circle cx="253.7" cy="476.0" r="3.2" fill="#16a34a"/>
<circle cx="258.7" cy="265.0" r="3.2" fill="#16a34a"/>
<circle cx="263.6" cy="476.0" r="3.2" fill="#16a34a"/>
<circle cx="268.6" cy="54.0" r="3.2" fill="#16a34a"/>
<circle cx="273.6" cy="476.0" r="3.2" fill="#16a34a"/>
<circle cx="278.5" cy="476.0" r="3.2" fill="#16a34a"/>
<circle cx="283.5" cy="476.0" r="3.2" fill="#16a34a"/>
<circle cx="288.5" cy="265.0" r="3.2" fill="#16a34a"/>
<circle cx="293.4" cy="476.0" r="3.2" fill="#16a34a"/>
<circle cx="298.4" cy="265.0" r="3.2" fill="#16a34a"/>
<circle cx="303.4" cy="476.0" r="3.2" fill="#16a34a"/>
<circle cx="308.3" cy="54.0" r="3.2" fill="#16a34a"/>
<circle cx="313.3" cy="476.0" r="3.2" fill="#16a34a"/>
<circle cx="318.3" cy="265.0" r="3.2" fill="#16a34a"/>
<circle cx="323.2" cy="476.0" r="3.2" fill="#16a34a"/>
<circle cx="328.2" cy="265.0" r="3.2" fill="#16a34a"/>
<circle cx="333.1" cy="476.0" r="3.2" fill="#16a34a"/>
<circle cx="338.1" cy="476.0" r="3.2" fill="#16a34a"/>
<circle cx="343.1" cy="54.0" r="3.2" fill="#16a34a"/>
<circle cx="348.0" cy="265.0" r="3.2" fill="#16a34a"/>
<circle cx="353.0" cy="476.0" r="3.2" fill="#16a34a"/>
<circle cx="358.0" cy="265.0" r="3.2" fill="#16a34a"/>
<circle cx="362.9" cy="476.0" r="3.2" fill="#16a34a"/>
<circle cx="367.9" cy="54.0" r="3.2" fill="#16a34a"/>
<circle cx="372.9" cy="476.0" r="3.2" fill="#16a34a"/>
<circle cx="377.8" cy="265.0" r="3.2" fill="#16a34a"/>
<circle cx="382.8" cy="476.0" r="3.2" fill="#16a34a"/>
<circle cx="387.8" cy="476.0" r="3.2" fill="#16a34a"/>
<rect x="808" y="89" width="14" height="14" fill="#16a34a"/>
<text x="830.0" y="100.0" font-size="12" font-family="Arial, sans-serif" font-weight="400" fill="#111827" text-anchor="start">wall_3course|moon</text>
<polyline points="70.0,476.0 75.0,476.0 79.9,476.0 84.9,476.0 89.9,476.0 94.8,54.0 99.8,476.0 104.8,476.0 109.7,476.0 114.7,476.0 119.7,476.0 124.6,476.0 129.6,476.0 134.5,476.0 139.5,476.0 144.5,476.0 149.4,476.0 154.4,476.0 159.4,476.0 164.3,476.0 169.3,476.0 174.3,476.0 179.2,476.0 184.2,476.0 189.2,476.0 194.1,476.0 199.1,476.0 204.1,476.0 209.0,476.0 214.0,476.0" fill="none" stroke="#dc2626" stroke-width="2.4" stroke-linejoin="round"/>
<circle cx="70.0" cy="476.0" r="3.2" fill="#dc2626"/>
<circle cx="75.0" cy="476.0" r="3.2" fill="#dc2626"/>
<circle cx="79.9" cy="476.0" r="3.2" fill="#dc2626"/>
<circle cx="84.9" cy="476.0" r="3.2" fill="#dc2626"/>
<circle cx="89.9" cy="476.0" r="3.2" fill="#dc2626"/>
<circle cx="94.8" cy="54.0" r="3.2" fill="#dc2626"/>
<circle cx="99.8" cy="476.0" r="3.2" fill="#dc2626"/>
<circle cx="104.8" cy="476.0" r="3.2" fill="#dc2626"/>
<circle cx="109.7" cy="476.0" r="3.2" fill="#dc2626"/>
<circle cx="114.7" cy="476.0" r="3.2" fill="#dc2626"/>
<circle cx="119.7" cy="476.0" r="3.2" fill="#dc2626"/>
<circle cx="124.6" cy="476.0" r="3.2" fill="#dc2626"/>
<circle cx="129.6" cy="476.0" r="3.2" fill="#dc2626"/>
<circle cx="134.5" cy="476.0" r="3.2" fill="#dc2626"/>
<circle cx="139.5" cy="476.0" r="3.2" fill="#dc2626"/>
<circle cx="144.5" cy="476.0" r="3.2" fill="#dc2626"/>
<circle cx="149.4" cy="476.0" r="3.2" fill="#dc2626"/>
<circle cx="154.4" cy="476.0" r="3.2" fill="#dc2626"/>
<circle cx="159.4" cy="476.0" r="3.2" fill="#dc2626"/>
<circle cx="164.3" cy="476.0" r="3.2" fill="#dc2626"/>
<circle cx="169.3" cy="476.0" r="3.2" fill="#dc2626"/>
<circle cx="174.3" cy="476.0" r="3.2" fill="#dc2626"/>
<circle cx="179.2" cy="476.0" r="3.2" fill="#dc2626"/>
<circle cx="184.2" cy="476.0" r="3.2" fill="#dc2626"/>
<circle cx="189.2" cy="476.0" r="3.2" fill="#dc2626"/>
<circle cx="194.1" cy="476.0" r="3.2" fill="#dc2626"/>
<circle cx="199.1" cy="476.0" r="3.2" fill="#dc2626"/>
<circle cx="204.1" cy="476.0" r="3.2" fill="#dc2626"/>
<circle cx="209.0" cy="476.0" r="3.2" fill="#dc2626"/>
<circle cx="214.0" cy="476.0" r="3.2" fill="#dc2626"/>
<rect x="808" y="112" width="14" height="14" fill="#dc2626"/>
<text x="830.0" y="123.0" font-size="12" font-family="Arial, sans-serif" font-weight="400" fill="#111827" text-anchor="start">wall_4course|earth</text>
<polyline points="70.0,476.0 75.0,476.0 79.9,476.0 84.9,476.0 89.9,391.6 94.8,476.0 99.8,476.0 104.8,476.0 109.7,476.0 114.7,476.0 119.7,476.0 124.6,476.0" fill="none" stroke="#7c3aed" stroke-width="2.4" stroke-linejoin="round"/>
<circle cx="70.0" cy="476.0" r="3.2" fill="#7c3aed"/>
<circle cx="75.0" cy="476.0" r="3.2" fill="#7c3aed"/>
<circle cx="79.9" cy="476.0" r="3.2" fill="#7c3aed"/>
<circle cx="84.9" cy="476.0" r="3.2" fill="#7c3aed"/>
<circle cx="89.9" cy="391.6" r="3.2" fill="#7c3aed"/>
<circle cx="94.8" cy="476.0" r="3.2" fill="#7c3aed"/>
<circle cx="99.8" cy="476.0" r="3.2" fill="#7c3aed"/>
<circle cx="104.8" cy="476.0" r="3.2" fill="#7c3aed"/>
<circle cx="109.7" cy="476.0" r="3.2" fill="#7c3aed"/>
<circle cx="114.7" cy="476.0" r="3.2" fill="#7c3aed"/>
<circle cx="119.7" cy="476.0" r="3.2" fill="#7c3aed"/>
<circle cx="124.6" cy="476.0" r="3.2" fill="#7c3aed"/>
<rect x="808" y="135" width="14" height="14" fill="#7c3aed"/>
<text x="830.0" y="146.0" font-size="12" font-family="Arial, sans-serif" font-weight="400" fill="#111827" text-anchor="start">wall_2course|moon</text>
<polyline points="70.0,476.0 75.0,476.0 79.9,476.0 84.9,335.3 89.9,265.0 94.8,476.0 99.8,391.6 104.8,433.8 109.7,476.0" fill="none" stroke="#f59e0b" stroke-width="2.4" stroke-linejoin="round"/>
<circle cx="70.0" cy="476.0" r="3.2" fill="#f59e0b"/>
<circle cx="75.0" cy="476.0" r="3.2" fill="#f59e0b"/>
<circle cx="79.9" cy="476.0" r="3.2" fill="#f59e0b"/>
<circle cx="84.9" cy="335.3" r="3.2" fill="#f59e0b"/>
<circle cx="89.9" cy="265.0" r="3.2" fill="#f59e0b"/>
<circle cx="94.8" cy="476.0" r="3.2" fill="#f59e0b"/>
<circle cx="99.8" cy="391.6" r="3.2" fill="#f59e0b"/>
<circle cx="104.8" cy="433.8" r="3.2" fill="#f59e0b"/>
<circle cx="109.7" cy="476.0" r="3.2" fill="#f59e0b"/>
<rect x="808" y="158" width="14" height="14" fill="#f59e0b"/>
<text x="830.0" y="169.0" font-size="12" font-family="Arial, sans-serif" font-weight="400" fill="#111827" text-anchor="start">wall_2course|earth</text>
<polyline points="70.0,391.6 75.0,476.0 79.9,476.0 84.9,476.0 89.9,476.0 94.8,476.0 99.8,476.0 104.8,476.0 109.7,476.0 114.7,476.0 119.7,476.0" fill="none" stroke="#0891b2" stroke-width="2.4" stroke-linejoin="round"/>
<circle cx="70.0" cy="391.6" r="3.2" fill="#0891b2"/>
<circle cx="75.0" cy="476.0" r="3.2" fill="#0891b2"/>
<circle cx="79.9" cy="476.0" r="3.2" fill="#0891b2"/>
<circle cx="84.9" cy="476.0" r="3.2" fill="#0891b2"/>
<circle cx="89.9" cy="476.0" r="3.2" fill="#0891b2"/>
<circle cx="94.8" cy="476.0" r="3.2" fill="#0891b2"/>
<circle cx="99.8" cy="476.0" r="3.2" fill="#0891b2"/>
<circle cx="104.8" cy="476.0" r="3.2" fill="#0891b2"/>
<circle cx="109.7" cy="476.0" r="3.2" fill="#0891b2"/>
<circle cx="114.7" cy="476.0" r="3.2" fill="#0891b2"/>
<circle cx="119.7" cy="476.0" r="3.2" fill="#0891b2"/>
<rect x="808" y="181" width="14" height="14" fill="#0891b2"/>
<text x="830.0" y="192.0" font-size="12" font-family="Arial, sans-serif" font-weight="400" fill="#111827" text-anchor="start">wall_3course|earth</text>
</svg>
