<svg xmlns="http://www.w3.org/2000/svg" width="1100" height="610" viewBox="0 0 1100 610">
<rect width="100%" height="100%" fill="#ffffff"/>
<text x="550.0" y="28.0" font-size="18" font-family="Arial, sans-serif" font-weight="700" fill="#111827" text-anchor="middle">Latest task success rates</text>
<rect x="76" y="54" width="804" height="406" fill="#f9fafb" stroke="#d1d5db"/>
<line x1="76" y1="460.0" x2="880" y2="460.0" stroke="#e5e7eb"/>
<text x="66.0" y="464.0" font-size="11" font-family="Arial, sans-serif" font-weight="400" fill="#111827" text-anchor="end">0.00</text>
<line x1="76" y1="378.8" x2="880" y2="378.8" stroke="#e5e7eb"/>
<text x="66.0" y="382.8" font-size="11" font-family="Arial, sans-serif" font-weight="400" fill="#111827" text-anchor="end">0.20</text>
<line x1="76" y1="297.6" x2="880" y2="297.6" stroke="#e5e7eb"/>
<text x="66.0" y="301.6" font-size="11" font-family="Arial, sans-serif" font-weight="400" fill="#111827" text-anchor="end">0.40</text>
<line x1="76" y1="216.4" x2="880" y2="216.4" stroke="#e5e7eb"/>
<text x="66.0" y="220.4" font-size="11" font-family="Arial, sans-serif" font-weight="400" fill="#111827" text-anchor="end">0.60</text>
<line x1="76" y1="135.2" x2="880" y2="135.2" stroke="#e5e7eb"/>
<text x="66.0" y="139.2" font-size="11" font-family="Arial, sans-serif" font-weight="400" fill="#111827" text-anchor="end">0.80</text>
<line x1="76" y1="54.0" x2="880" y2="54.0" stroke="#e5e7eb"/>
<text x="66.0" y="58.0" font-size="11" font-family="Arial, sans-serif" font-weight="400" fill="#111827" text-anchor="end">1.00</text>
<text x="20" y="257.0" font-size="12" fill="#374151" text-anchor="middle" transform="rotate(-90 20,257.0)">value</text>
<line x1="76" y1="460.0" x2="880" y2="460.0" stroke="#111827" stroke-width="1"/>
<rect x="83.3" y="460.0" width="24.0" height="0.0" fill="#2563eb"/>
<rect x="150.3" y="460.0" width="24.0" height="0.0" fill="#2563eb"/>
<rect x="217.3" y="460.0" width="24.0" height="0.0" fill="#2563eb"/>
<rect x="284.3" y="460.0" width="24.0" height="0.0" fill="#2563eb"/>
<rect x="351.3" y="460.0" width="24.0" height="0.0" fill="#2563eb"/>
<rect x="418.3" y="460.0" width="24.0" height="0.0" fill="#2563eb"/>
<rect x="485.3" y="460.0" width="24.0" height="0.0" fill="#2563eb"/>
<rect x="552.3" y="460.0" width="24.0" height="0.0" fill="#2563eb"/>
<rect x="619.3" y="460.0" width="24.0" height="0.0" fill="#2563eb"/>
<rect x="686.3" y="460.0" width="24.0" height="0.0" fill="#2563eb"/>
<rect x="753.3" y="460.0" width="24.0" height="0.0" fill="#2563eb"/>
<rect x="820.3" y="460.0" width="24.0" height="0.0" fill="#2563eb"/>
<rect x="111.7" y="460.0" width="24.0" height="0.0" fill="#16a34a"/>
<rect x="178.7" y="460.0" width="24.0" height="0.0" fill="#16a34a"/>
<rect x="245.7" y="460.0" width="24.0" height="0.0" fill="#16a34a"/>
<rect x="312.7" y="460.0" width="24.0" height="0.0" fill="#16a34a"/>
<rect x="379.7" y="460.0" width="24.0" height="0.0" fill="#16a34a"/>
<rect x="446.7" y="460.0" width="24.0" height="0.0" fill="#16a34a"/>
<rect x="513.7" y="460.0" width="24.0" height="0.0" fill="#16a34a"/>
<rect x="580.7" y="460.0" width="24.0" height="0.0" fill="#16a34a"/>
<rect x="647.7" y="460.0" width="24.0" height="0.0" fill="#16a34a"/>
<rect x="714.7" y="460.0" width="24.0" height="0.0" fill="#16a34a"/>
<rect x="781.7" y="460.0" width="24.0" height="0.0" fill="#16a34a"/>
<rect x="848.7" y="460.0" width="24.0" height="0.0" fill="#16a34a"/>
<text x="109.5" y="498" font-size="11" fill="#374151" text-anchor="end" transform="rotate(-36 109.5,498)">wall_4course|moon</text>
<text x="176.5" y="498" font-size="11" fill="#374151" text-anchor="end" transform="rotate(-36 176.5,498)">wall_3course|moon</text>
<text x="243.5" y="498" font-size="11" fill="#374151" text-anchor="end" transform="rotate(-36 243.5,498)">wall_4course|earth</text>
<text x="310.5" y="498" font-size="11" fill="#374151" text-anchor="end" transform="rotate(-36 310.5,498)">wall_2course|moon</text>
<text x="377.5" y="498" font-size="11" fill="#374151" text-anchor="end" transform="rotate(-36 377.5,498)">wall_2course|earth</text>
<text x="444.5" y="498" font-size="11" fill="#374151" text-anchor="end" transform="rotate(-36 444.5,498)">wall_3course|earth</text>
<text x="511.5" y="498" font-size="11" fill="#374151" text-anchor="end" transform="rotate(-36 511.5,498)">wall_high|earth</text>
<text x="578.5" y="498" font-size="11" fill="#374151" text-anchor="end" transform="rotate(-36 578.5,498)">wall_high|moon</text>
<text x="645.5" y="498" font-size="11" fill="#374151" text-anchor="end" transform="rotate(-36 645.5,498)">wall|moon</text>
<text x="712.5" y="498" font-size="11" fill="#374151" text-anchor="end" transform="rotate(-36 712.5,498)">wall_extra_high|earth</text>
<text x="779.5" y="498" font-size="11" fill="#374151" text-anchor="end" transform="rotate(-36 779.5,498)">wall_extra_high|moon</text>
<text x="846.5" y="498" font-size="11" fill="#374151" text-anchor="end" transform="rotate(-36 846.5,498)">wall|earth</text>
<rect x="908" y="66" width="14" height="14" fill="#2563eb"/>
<text x="930.0" y="77.0" font-size="12" font-family="Arial, sans-serif" font-weight="400" fill="#111827" text-anchor="start">strict</text>
<rect x="908" y="90" width="14" height="14" fill="#16a34a"/>
<text x="930.0" y="101.0" font-size="12" font-family="Arial, sans-serif" font-weight="400" fill="#111827" text-anchor="start">shape</text>
</svg>
